# xmcd
#
# Track frame offsets:
#	150
#	15987
#	31732
#	45527
#	61616
#	78098
#	90176
#	105800
#	122912
#	141052
#	156056
#	171903
#
# Disc length: 2463 seconds
# Revision: 0
# Processed by: cddbd v1.5.2PL0 Copyright (c) Steve Scherf et al.
# Submitted via: dBpowerAMP V12.0
#
DISCID=76099d0c
DTITLE=The Twangtown Paramours - The Promise Of Friday Night
DYEAR=2012
DGENRE=Singer/Songwriter
TTITLE0=All the Love I Can Stand
TTITLE1=If I Fall For You
TTITLE2=Same Ol' Same Ol'
TTITLE3=Widow of the Mountain
TTITLE4=Will You Turn to Me
TTITLE5=Walks Like a Duck
TTITLE6=Heaven is Somewhere Else
TTITLE7=Chains
TTITLE8=Farewell Hello, Hello Farewell
TTITLE9=I'll Get Through to You
TTITLE10=The Promise of Friday Night
TTITLE11=Flowers When You're Dead
EXTD=
EXTT0=
EXTT1=
EXTT2=
EXTT3=
EXTT4=
EXTT5=
EXTT6=
EXTT7=
EXTT8=
EXTT9=
EXTT10=
EXTT11=
PLAYORDER=
